<svg xmlns="http://www.w3.org/2000/svg" xml:space="preserve" viewBox="0 0 112.2 112.2">
  <circle cx="56.1" cy="56.1" r="56.1" fill="#55acee"/>
  <path fill="#f1f2f2" d="M90.46 40.32a26.75 26.75 0 0 1-7.7 2.1 13.45 13.45 0 0 0 5.9-7.41 26.84 26.84 0 0 1-8.52 3.25A13.41 13.41 0 0 0 57.3 50.5a38.06 38.06 0 0 1-27.64-14 13.4 13.4 0 0 0 4.15 17.9c-2.2-.08-4.26-.68-6.07-1.69v.17c0 6.5 4.62 11.92 10.75 13.15a13.36 13.36 0 0 1-6.05.23c1.7 5.33 6.66 9.2 12.52 9.32a26.9 26.9 0 0 1-19.85 5.55 37.93 37.93 0 0 0 20.56 6.02C70.32 87.14 83.8 66.71 83.8 49c0-.58-.02-1.16-.04-1.73a27.2 27.2 0 0 0 6.7-6.94z"/>
</svg>
